<svg width="486" height="49" viewBox="0 0 486 49" fill="none" xmlns="http://www.w3.org/2000/svg">
<path d="M485.289 0.390625V9.36134H480.937H472.167V48.3906H462.762V9.36134H454.226H449.875V0.390625H485.289Z" fill="white"/>
<path d="M442.946 0.390625V9.32786H423.063V20.0392H442.946V28.7421H423.063V39.4534H442.946V48.3906H414.125V0.390625H442.946Z" fill="white"/>
<path d="M408.301 0.390625L391.799 24.491L408.301 48.3906H397.389L382.628 26.968V48.3906H373.49V0.390625H382.628V21.8467L397.389 0.390625H408.301Z" fill="white"/>
<path d="M369.138 48.3906H359.297L350.561 31.989H345.238V48.3906H336.067V0.390625H353.674C357.958 0.390625 361.607 1.8969 364.619 4.90945C367.632 7.92201 369.138 11.5705 369.138 15.8551V16.3237C369.138 22.8174 366.014 27.604 359.766 30.6835L369.138 48.3906ZM352.77 23.0517C354.6 23.0517 356.184 22.3599 357.523 20.9764C358.862 19.6375 359.531 17.9973 359.531 16.0559C359.531 14.1591 358.862 12.5747 357.523 11.3028C356.206 10.0085 354.622 9.36134 352.77 9.36134H345.238V23.0517H352.77Z" fill="white"/>
<path d="M312 0.390625L312.234 1.06008L307.548 13.1438L301.054 29.6459H314.008L310.895 21.8467L315.581 9.76301L330.544 48.3906H320.904L317.356 38.5496H297.707L293.69 48.3906H284.318L302.828 0.390625H312Z" fill="white"/>
<path d="M270.996 0.390625L279.029 48.3906H270.36L265.205 18.0308L255.163 48.3906H247.13L236.853 18.0308L231.732 48.3906H222.795L231.063 0.390625H239.966L251.146 33.8969L262.293 0.390625H270.996Z" fill="white"/>
<path d="M196.887 0.390625L180.385 24.491L196.887 48.3906H185.975L171.213 26.968V48.3906H162.075V0.390625H171.213V21.8467L185.975 0.390625H196.887Z" fill="white"/>
<path d="M137.941 40.1563C139.236 40.1563 140.474 40.0113 141.657 39.7212C142.862 39.4088 144 38.9736 145.071 38.4157C146.142 37.8578 147.135 37.1996 148.05 36.4408C148.965 35.6598 149.78 34.7895 150.494 33.83L156.686 39.1856C155.593 40.5691 154.354 41.83 152.971 42.968C151.609 44.1061 150.126 45.0768 148.519 45.8802C146.934 46.6835 145.25 47.3083 143.464 47.7546C141.702 48.1786 139.861 48.3906 137.941 48.3906C135.732 48.3906 133.601 48.1117 131.548 47.5538C129.517 46.9736 127.609 46.1591 125.824 45.1103C124.039 44.0615 122.421 42.8118 120.971 41.3613C119.52 39.9108 118.271 38.293 117.222 36.5078C116.173 34.7226 115.358 32.8146 114.778 30.7839C114.22 28.7309 113.941 26.5998 113.941 24.3906C113.941 22.1814 114.22 20.0615 114.778 18.0308C115.358 15.9778 116.173 14.0587 117.222 12.2735C118.271 10.4883 119.52 8.8704 120.971 7.41991C122.421 5.96943 124.039 4.71977 125.824 3.67096C127.609 2.62215 129.517 1.8188 131.548 1.26092C133.601 0.680723 135.732 0.390625 137.941 0.390625C139.861 0.390625 141.702 0.613777 143.464 1.06008C145.25 1.48407 146.934 2.09774 148.519 2.90109C150.126 3.70443 151.609 4.67514 152.971 5.81322C154.354 6.92898 155.593 8.17863 156.686 9.56217L150.494 14.9513C149.78 13.9917 148.965 13.1214 148.05 12.3404C147.135 11.5594 146.142 10.9011 145.071 10.3655C144 9.80764 142.862 9.38365 141.657 9.09355C140.474 8.78114 139.236 8.62493 137.941 8.62493C135.777 8.62493 133.735 9.03777 131.816 9.86343C129.897 10.6891 128.223 11.816 126.795 13.2442C125.367 14.6724 124.24 16.346 123.414 18.2651C122.589 20.1619 122.176 22.2037 122.176 24.3906C122.176 26.5552 122.589 28.597 123.414 30.5161C124.24 32.4353 125.367 34.1089 126.795 35.5371C128.223 36.9652 129.897 38.0922 131.816 38.9178C133.735 39.7435 135.777 40.1563 137.941 40.1563Z" fill="white"/>
<path d="M96.569 0.390625L96.8033 1.06008L92.1171 13.1438L85.6234 29.6459H98.5773L95.4644 21.8467L100.151 9.76301L115.113 48.3906H105.473L101.925 38.5496H82.2761L78.2593 48.3906H68.887L87.3974 0.390625H96.569Z" fill="white"/>
<path d="M45.9917 0.390625V39.6542H63.6988V48.3906H37.0879V0.390625H45.9917Z" fill="white"/>
<path d="M15.9331 48.3906H0V0.390625H7.59833C8.71409 0.390625 9.86332 0.41294 11.046 0.457571C12.251 0.479886 13.4003 0.535674 14.4937 0.624935C15.5872 0.69188 16.569 0.781141 17.4393 0.892717C18.3319 1.00429 19.0237 1.13818 19.5146 1.29439C22.3487 2.12005 24.6583 3.54823 26.4435 5.57891C28.2064 7.54265 29.0879 9.98616 29.0879 12.9095C29.0879 14.6947 28.6416 16.3348 27.749 17.83C27.0572 19.3251 25.8633 20.7309 24.1674 22.0475C29.7015 24.703 32.4686 28.7979 32.4686 34.332C32.4686 37.1661 31.788 39.6208 30.4268 41.6961C28.9093 43.9499 27.1241 45.657 25.0711 46.8174C22.8173 47.8662 19.7713 48.3906 15.9331 48.3906ZM13.6904 39.6542C17.5063 39.6542 20.106 39.2079 21.4895 38.3153C22.8508 37.2665 23.5314 35.8606 23.5314 34.0977C23.5314 32.1117 22.7838 30.4715 21.2887 29.1772C19.6374 27.9945 17.0377 27.4032 13.4895 27.4032H9.13808V39.6542H13.6904ZM13.4895 19.3697C15.6764 19.3697 17.3835 18.8565 18.6109 17.83C19.6374 16.8704 20.1506 15.5984 20.1506 14.0141C20.1506 12.4074 19.6374 11.2247 18.6109 10.4659C17.5174 9.57333 15.9554 9.12703 13.9247 9.12703H9.13808V19.3697H13.4895Z" fill="white"/>
</svg>
